<svg width="75" height="78" viewBox="0 0 75 78" fill="none" xmlns="http://www.w3.org/2000/svg">
<g clip-path="url(#clip0_502_1001)">
<path d="M0.0004923 44.134L0.187352 16.0106C0.221178 10.9197 3.78022 6.55849 8.69607 5.5841L35.8526 0.201288C42.3785 -1.09224 48.4343 4.01395 48.3895 10.7722L48.2025 38.8955C48.1688 43.9863 44.6098 48.3476 39.694 49.3221L12.5373 54.7048C6.0114 55.9983 -0.0444111 50.8922 0.0004923 44.134Z" fill="black" fill-opacity="0.2"/>
<path d="M13.3054 55.3488L13.4923 27.2254C13.5261 22.1345 17.0851 17.7733 22.001 16.7989L49.1576 11.4161C55.6836 10.1226 61.7393 15.2288 61.6943 21.9871L61.5075 50.1105C61.4738 55.2013 57.9146 59.5626 52.9988 60.5369L25.8422 65.9198C19.3163 67.2133 13.2605 62.107 13.3054 55.3488Z" fill="black" fill-opacity="0.5"/>
<path d="M26.6106 66.574L26.7976 38.4506C26.8314 33.3595 30.3904 28.9985 35.3061 28.024L62.4627 22.6412C68.9886 21.3477 75.0447 26.4539 74.9997 33.2121L74.8129 61.3354C74.7789 66.4263 71.2199 70.7876 66.3041 71.7621L39.1475 77.1447C32.6216 78.4383 26.5658 73.3322 26.6106 66.574Z" fill="black" fill-opacity="0.8"/>
</g>
<defs>
<clipPath id="clip0_502_1001">
<rect width="75" height="77.3438" fill="white"/>
</clipPath>
</defs>
</svg>
